<mxfile host="app.diagrams.net" modified="2024-03-10T18:54:10.959Z" agent="Mozilla/5.0 (Windows NT 10.0; Win64; x64) AppleWebKit/537.36 (KHTML, like Gecko) Chrome/122.0.0.0 Safari/537.36" etag="fJ8y6YgEMchjOKXwL_bi" version="24.0.1" type="google">
  <diagram name="Página-1" id="QMXb8cIJ5GBpTzo02CVi">
    <mxGraphModel grid="1" page="1" gridSize="10" guides="1" tooltips="1" connect="1" arrows="1" fold="1" pageScale="1" pageWidth="827" pageHeight="1169" math="0" shadow="0">
      <root>
        <mxCell id="0" />
        <mxCell id="1" parent="0" />
        <mxCell id="ydRsslhX5d8lT5pr2JEG-2" value="" style="rounded=0;whiteSpace=wrap;html=1;" vertex="1" parent="1">
          <mxGeometry width="820" height="1160" as="geometry" />
        </mxCell>
        <mxCell id="ydRsslhX5d8lT5pr2JEG-4" value="" style="rounded=0;whiteSpace=wrap;html=1;" vertex="1" parent="1">
          <mxGeometry width="820" height="170" as="geometry" />
        </mxCell>
        <mxCell id="ydRsslhX5d8lT5pr2JEG-5" value="Inicio" style="rounded=1;whiteSpace=wrap;html=1;" vertex="1" parent="1">
          <mxGeometry x="320" y="10" width="90" height="40" as="geometry" />
        </mxCell>
        <mxCell id="ydRsslhX5d8lT5pr2JEG-6" value="" style="rounded=0;whiteSpace=wrap;html=1;" vertex="1" parent="1">
          <mxGeometry y="750" width="820" height="410" as="geometry" />
        </mxCell>
        <mxCell id="ydRsslhX5d8lT5pr2JEG-7" value="Registrarse" style="rounded=1;whiteSpace=wrap;html=1;" vertex="1" parent="1">
          <mxGeometry x="420" y="10" width="90" height="40" as="geometry" />
        </mxCell>
        <mxCell id="ydRsslhX5d8lT5pr2JEG-9" value="Contacto" style="rounded=1;whiteSpace=wrap;html=1;" vertex="1" parent="1">
          <mxGeometry x="720" y="10" width="90" height="40" as="geometry" />
        </mxCell>
        <mxCell id="ydRsslhX5d8lT5pr2JEG-10" value="Login" style="rounded=1;whiteSpace=wrap;html=1;" vertex="1" parent="1">
          <mxGeometry x="520" y="10" width="90" height="40" as="geometry" />
        </mxCell>
        <mxCell id="ydRsslhX5d8lT5pr2JEG-11" value="Catalogo" style="rounded=1;whiteSpace=wrap;html=1;" vertex="1" parent="1">
          <mxGeometry x="620" y="10" width="90" height="40" as="geometry" />
        </mxCell>
        <mxCell id="ydRsslhX5d8lT5pr2JEG-13" value="Logo" style="rounded=1;whiteSpace=wrap;html=1;" vertex="1" parent="1">
          <mxGeometry x="30" y="10" width="260" height="40" as="geometry" />
        </mxCell>
        <mxCell id="ydRsslhX5d8lT5pr2JEG-14" value="Eslogan" style="rounded=1;whiteSpace=wrap;html=1;" vertex="1" parent="1">
          <mxGeometry x="175" y="180" width="470" height="40" as="geometry" />
        </mxCell>
        <mxCell id="ydRsslhX5d8lT5pr2JEG-15" value="Carrusel de imagenes" style="rounded=1;whiteSpace=wrap;html=1;" vertex="1" parent="1">
          <mxGeometry x="30" y="230" width="770" height="260" as="geometry" />
        </mxCell>
        <mxCell id="ydRsslhX5d8lT5pr2JEG-20" value="FB" style="rounded=1;whiteSpace=wrap;html=1;" vertex="1" parent="1">
          <mxGeometry x="305" y="90" width="40" height="40" as="geometry" />
        </mxCell>
        <mxCell id="ydRsslhX5d8lT5pr2JEG-21" value="IG" style="rounded=1;whiteSpace=wrap;html=1;" vertex="1" parent="1">
          <mxGeometry x="365" y="90" width="40" height="40" as="geometry" />
        </mxCell>
        <mxCell id="ydRsslhX5d8lT5pr2JEG-22" value="LI" style="rounded=1;whiteSpace=wrap;html=1;" vertex="1" parent="1">
          <mxGeometry x="425" y="90" width="40" height="40" as="geometry" />
        </mxCell>
        <mxCell id="ydRsslhX5d8lT5pr2JEG-23" value="GO" style="rounded=1;whiteSpace=wrap;html=1;" vertex="1" parent="1">
          <mxGeometry x="485" y="90" width="40" height="40" as="geometry" />
        </mxCell>
        <mxCell id="ydRsslhX5d8lT5pr2JEG-24" value="" style="rounded=1;whiteSpace=wrap;html=1;" vertex="1" parent="1">
          <mxGeometry x="35" y="520" width="760" height="190" as="geometry" />
        </mxCell>
        <mxCell id="ydRsslhX5d8lT5pr2JEG-25" value="" style="rounded=1;whiteSpace=wrap;html=1;" vertex="1" parent="1">
          <mxGeometry x="65" y="540" width="150" height="150" as="geometry" />
        </mxCell>
        <mxCell id="ydRsslhX5d8lT5pr2JEG-26" value="" style="rounded=1;whiteSpace=wrap;html=1;" vertex="1" parent="1">
          <mxGeometry x="245" y="540" width="150" height="150" as="geometry" />
        </mxCell>
        <mxCell id="ydRsslhX5d8lT5pr2JEG-27" value="" style="rounded=1;whiteSpace=wrap;html=1;" vertex="1" parent="1">
          <mxGeometry x="425" y="540" width="150" height="150" as="geometry" />
        </mxCell>
        <mxCell id="ydRsslhX5d8lT5pr2JEG-28" value="" style="rounded=1;whiteSpace=wrap;html=1;" vertex="1" parent="1">
          <mxGeometry x="605" y="540" width="150" height="150" as="geometry" />
        </mxCell>
        <mxCell id="ydRsslhX5d8lT5pr2JEG-29" value="Marketing" style="rounded=0;whiteSpace=wrap;html=1;" vertex="1" parent="1">
          <mxGeometry x="65" y="770" width="705" height="240" as="geometry" />
        </mxCell>
        <mxCell id="ydRsslhX5d8lT5pr2JEG-30" value="Section" style="text;html=1;align=center;verticalAlign=middle;whiteSpace=wrap;rounded=0;" vertex="1" parent="1">
          <mxGeometry x="35" y="520" width="60" height="30" as="geometry" />
        </mxCell>
        <mxCell id="ydRsslhX5d8lT5pr2JEG-31" value="div" style="text;html=1;align=center;verticalAlign=middle;whiteSpace=wrap;rounded=0;" vertex="1" parent="1">
          <mxGeometry x="65" y="540" width="60" height="30" as="geometry" />
        </mxCell>
        <mxCell id="ydRsslhX5d8lT5pr2JEG-35" value="a" style="text;html=1;align=center;verticalAlign=middle;whiteSpace=wrap;rounded=0;" vertex="1" parent="1">
          <mxGeometry x="295" y="110" width="60" height="30" as="geometry" />
        </mxCell>
        <mxCell id="ydRsslhX5d8lT5pr2JEG-36" value="a" style="text;html=1;align=center;verticalAlign=middle;whiteSpace=wrap;rounded=0;" vertex="1" parent="1">
          <mxGeometry x="355" y="110" width="60" height="30" as="geometry" />
        </mxCell>
        <mxCell id="ydRsslhX5d8lT5pr2JEG-37" value="a" style="text;html=1;align=center;verticalAlign=middle;whiteSpace=wrap;rounded=0;" vertex="1" parent="1">
          <mxGeometry x="415" y="110" width="60" height="30" as="geometry" />
        </mxCell>
        <mxCell id="ydRsslhX5d8lT5pr2JEG-38" value="a" style="text;html=1;align=center;verticalAlign=middle;whiteSpace=wrap;rounded=0;" vertex="1" parent="1">
          <mxGeometry x="475" y="110" width="60" height="30" as="geometry" />
        </mxCell>
        <mxCell id="ydRsslhX5d8lT5pr2JEG-40" value="div" style="text;html=1;align=center;verticalAlign=middle;whiteSpace=wrap;rounded=0;" vertex="1" parent="1">
          <mxGeometry x="65" y="790" width="60" height="30" as="geometry" />
        </mxCell>
        <mxCell id="ydRsslhX5d8lT5pr2JEG-41" value="Información general" style="rounded=0;whiteSpace=wrap;html=1;" vertex="1" parent="1">
          <mxGeometry x="65" y="1040" width="705" height="100" as="geometry" />
        </mxCell>
        <mxCell id="ydRsslhX5d8lT5pr2JEG-42" value="div" style="text;html=1;align=center;verticalAlign=middle;whiteSpace=wrap;rounded=0;" vertex="1" parent="1">
          <mxGeometry x="75" y="1050" width="60" height="30" as="geometry" />
        </mxCell>
        <mxCell id="ydRsslhX5d8lT5pr2JEG-43" value="div" style="text;html=1;align=center;verticalAlign=middle;whiteSpace=wrap;rounded=0;" vertex="1" parent="1">
          <mxGeometry x="245" y="540" width="60" height="30" as="geometry" />
        </mxCell>
        <mxCell id="ydRsslhX5d8lT5pr2JEG-44" value="div" style="text;html=1;align=center;verticalAlign=middle;whiteSpace=wrap;rounded=0;" vertex="1" parent="1">
          <mxGeometry x="435" y="540" width="60" height="30" as="geometry" />
        </mxCell>
        <mxCell id="ydRsslhX5d8lT5pr2JEG-45" value="div" style="text;html=1;align=center;verticalAlign=middle;whiteSpace=wrap;rounded=0;" vertex="1" parent="1">
          <mxGeometry x="610" y="540" width="60" height="30" as="geometry" />
        </mxCell>
        <mxCell id="ydRsslhX5d8lT5pr2JEG-46" value="div" style="text;html=1;align=center;verticalAlign=middle;whiteSpace=wrap;rounded=0;" vertex="1" parent="1">
          <mxGeometry x="35" y="200" width="60" height="30" as="geometry" />
        </mxCell>
        <mxCell id="ydRsslhX5d8lT5pr2JEG-88" value="" style="rounded=0;whiteSpace=wrap;html=1;" vertex="1" parent="1">
          <mxGeometry x="880" width="820" height="1160" as="geometry" />
        </mxCell>
        <mxCell id="ydRsslhX5d8lT5pr2JEG-89" value="" style="rounded=0;whiteSpace=wrap;html=1;" vertex="1" parent="1">
          <mxGeometry x="880" width="820" height="170" as="geometry" />
        </mxCell>
        <mxCell id="ydRsslhX5d8lT5pr2JEG-90" value="Inicio" style="rounded=1;whiteSpace=wrap;html=1;" vertex="1" parent="1">
          <mxGeometry x="1200" y="10" width="90" height="40" as="geometry" />
        </mxCell>
        <mxCell id="ydRsslhX5d8lT5pr2JEG-91" value="" style="rounded=0;whiteSpace=wrap;html=1;" vertex="1" parent="1">
          <mxGeometry x="880" y="750" width="820" height="410" as="geometry" />
        </mxCell>
        <mxCell id="ydRsslhX5d8lT5pr2JEG-92" value="Registrarse" style="rounded=1;whiteSpace=wrap;html=1;" vertex="1" parent="1">
          <mxGeometry x="1300" y="10" width="90" height="40" as="geometry" />
        </mxCell>
        <mxCell id="ydRsslhX5d8lT5pr2JEG-93" value="Contacto" style="rounded=1;whiteSpace=wrap;html=1;" vertex="1" parent="1">
          <mxGeometry x="1600" y="10" width="90" height="40" as="geometry" />
        </mxCell>
        <mxCell id="ydRsslhX5d8lT5pr2JEG-94" value="Login" style="rounded=1;whiteSpace=wrap;html=1;" vertex="1" parent="1">
          <mxGeometry x="1400" y="10" width="90" height="40" as="geometry" />
        </mxCell>
        <mxCell id="ydRsslhX5d8lT5pr2JEG-95" value="Catalogo" style="rounded=1;whiteSpace=wrap;html=1;" vertex="1" parent="1">
          <mxGeometry x="1500" y="10" width="90" height="40" as="geometry" />
        </mxCell>
        <mxCell id="ydRsslhX5d8lT5pr2JEG-96" value="Logo" style="rounded=1;whiteSpace=wrap;html=1;" vertex="1" parent="1">
          <mxGeometry x="910" y="10" width="260" height="40" as="geometry" />
        </mxCell>
        <mxCell id="ydRsslhX5d8lT5pr2JEG-99" value="FB" style="rounded=1;whiteSpace=wrap;html=1;" vertex="1" parent="1">
          <mxGeometry x="1185" y="90" width="40" height="40" as="geometry" />
        </mxCell>
        <mxCell id="ydRsslhX5d8lT5pr2JEG-100" value="IG" style="rounded=1;whiteSpace=wrap;html=1;" vertex="1" parent="1">
          <mxGeometry x="1245" y="90" width="40" height="40" as="geometry" />
        </mxCell>
        <mxCell id="ydRsslhX5d8lT5pr2JEG-101" value="LI" style="rounded=1;whiteSpace=wrap;html=1;" vertex="1" parent="1">
          <mxGeometry x="1305" y="90" width="40" height="40" as="geometry" />
        </mxCell>
        <mxCell id="ydRsslhX5d8lT5pr2JEG-102" value="GO" style="rounded=1;whiteSpace=wrap;html=1;" vertex="1" parent="1">
          <mxGeometry x="1365" y="90" width="40" height="40" as="geometry" />
        </mxCell>
        <mxCell id="ydRsslhX5d8lT5pr2JEG-108" value="Marketing" style="rounded=0;whiteSpace=wrap;html=1;" vertex="1" parent="1">
          <mxGeometry x="945" y="770" width="705" height="240" as="geometry" />
        </mxCell>
        <mxCell id="ydRsslhX5d8lT5pr2JEG-111" value="a" style="text;html=1;align=center;verticalAlign=middle;whiteSpace=wrap;rounded=0;" vertex="1" parent="1">
          <mxGeometry x="1175" y="110" width="60" height="30" as="geometry" />
        </mxCell>
        <mxCell id="ydRsslhX5d8lT5pr2JEG-112" value="a" style="text;html=1;align=center;verticalAlign=middle;whiteSpace=wrap;rounded=0;" vertex="1" parent="1">
          <mxGeometry x="1235" y="110" width="60" height="30" as="geometry" />
        </mxCell>
        <mxCell id="ydRsslhX5d8lT5pr2JEG-113" value="a" style="text;html=1;align=center;verticalAlign=middle;whiteSpace=wrap;rounded=0;" vertex="1" parent="1">
          <mxGeometry x="1295" y="110" width="60" height="30" as="geometry" />
        </mxCell>
        <mxCell id="ydRsslhX5d8lT5pr2JEG-114" value="a" style="text;html=1;align=center;verticalAlign=middle;whiteSpace=wrap;rounded=0;" vertex="1" parent="1">
          <mxGeometry x="1355" y="110" width="60" height="30" as="geometry" />
        </mxCell>
        <mxCell id="ydRsslhX5d8lT5pr2JEG-115" value="div" style="text;html=1;align=center;verticalAlign=middle;whiteSpace=wrap;rounded=0;" vertex="1" parent="1">
          <mxGeometry x="945" y="790" width="60" height="30" as="geometry" />
        </mxCell>
        <mxCell id="ydRsslhX5d8lT5pr2JEG-116" value="Información general" style="rounded=0;whiteSpace=wrap;html=1;" vertex="1" parent="1">
          <mxGeometry x="945" y="1040" width="705" height="100" as="geometry" />
        </mxCell>
        <mxCell id="ydRsslhX5d8lT5pr2JEG-117" value="div" style="text;html=1;align=center;verticalAlign=middle;whiteSpace=wrap;rounded=0;" vertex="1" parent="1">
          <mxGeometry x="955" y="1050" width="60" height="30" as="geometry" />
        </mxCell>
        <mxCell id="ydRsslhX5d8lT5pr2JEG-122" value="" style="rounded=0;whiteSpace=wrap;html=1;" vertex="1" parent="1">
          <mxGeometry x="1770" width="820" height="1160" as="geometry" />
        </mxCell>
        <mxCell id="ydRsslhX5d8lT5pr2JEG-123" value="" style="rounded=0;whiteSpace=wrap;html=1;" vertex="1" parent="1">
          <mxGeometry x="1770" width="820" height="170" as="geometry" />
        </mxCell>
        <mxCell id="ydRsslhX5d8lT5pr2JEG-124" value="Inicio" style="rounded=1;whiteSpace=wrap;html=1;" vertex="1" parent="1">
          <mxGeometry x="2090" y="10" width="90" height="40" as="geometry" />
        </mxCell>
        <mxCell id="ydRsslhX5d8lT5pr2JEG-125" value="" style="rounded=0;whiteSpace=wrap;html=1;" vertex="1" parent="1">
          <mxGeometry x="1770" y="750" width="820" height="410" as="geometry" />
        </mxCell>
        <mxCell id="ydRsslhX5d8lT5pr2JEG-126" value="Registrarse" style="rounded=1;whiteSpace=wrap;html=1;" vertex="1" parent="1">
          <mxGeometry x="2190" y="10" width="90" height="40" as="geometry" />
        </mxCell>
        <mxCell id="ydRsslhX5d8lT5pr2JEG-127" value="Contacto" style="rounded=1;whiteSpace=wrap;html=1;" vertex="1" parent="1">
          <mxGeometry x="2490" y="10" width="90" height="40" as="geometry" />
        </mxCell>
        <mxCell id="ydRsslhX5d8lT5pr2JEG-128" value="Login" style="rounded=1;whiteSpace=wrap;html=1;" vertex="1" parent="1">
          <mxGeometry x="2290" y="10" width="90" height="40" as="geometry" />
        </mxCell>
        <mxCell id="ydRsslhX5d8lT5pr2JEG-129" value="Catalogo" style="rounded=1;whiteSpace=wrap;html=1;" vertex="1" parent="1">
          <mxGeometry x="2390" y="10" width="90" height="40" as="geometry" />
        </mxCell>
        <mxCell id="ydRsslhX5d8lT5pr2JEG-130" value="Logo" style="rounded=1;whiteSpace=wrap;html=1;" vertex="1" parent="1">
          <mxGeometry x="1800" y="10" width="260" height="40" as="geometry" />
        </mxCell>
        <mxCell id="ydRsslhX5d8lT5pr2JEG-131" value="FB" style="rounded=1;whiteSpace=wrap;html=1;" vertex="1" parent="1">
          <mxGeometry x="2075" y="90" width="40" height="40" as="geometry" />
        </mxCell>
        <mxCell id="ydRsslhX5d8lT5pr2JEG-132" value="IG" style="rounded=1;whiteSpace=wrap;html=1;" vertex="1" parent="1">
          <mxGeometry x="2135" y="90" width="40" height="40" as="geometry" />
        </mxCell>
        <mxCell id="ydRsslhX5d8lT5pr2JEG-133" value="LI" style="rounded=1;whiteSpace=wrap;html=1;" vertex="1" parent="1">
          <mxGeometry x="2195" y="90" width="40" height="40" as="geometry" />
        </mxCell>
        <mxCell id="ydRsslhX5d8lT5pr2JEG-134" value="GO" style="rounded=1;whiteSpace=wrap;html=1;" vertex="1" parent="1">
          <mxGeometry x="2255" y="90" width="40" height="40" as="geometry" />
        </mxCell>
        <mxCell id="ydRsslhX5d8lT5pr2JEG-135" value="Marketing" style="rounded=0;whiteSpace=wrap;html=1;" vertex="1" parent="1">
          <mxGeometry x="1835" y="770" width="705" height="240" as="geometry" />
        </mxCell>
        <mxCell id="ydRsslhX5d8lT5pr2JEG-136" value="a" style="text;html=1;align=center;verticalAlign=middle;whiteSpace=wrap;rounded=0;" vertex="1" parent="1">
          <mxGeometry x="2065" y="110" width="60" height="30" as="geometry" />
        </mxCell>
        <mxCell id="ydRsslhX5d8lT5pr2JEG-137" value="a" style="text;html=1;align=center;verticalAlign=middle;whiteSpace=wrap;rounded=0;" vertex="1" parent="1">
          <mxGeometry x="2125" y="110" width="60" height="30" as="geometry" />
        </mxCell>
        <mxCell id="ydRsslhX5d8lT5pr2JEG-138" value="a" style="text;html=1;align=center;verticalAlign=middle;whiteSpace=wrap;rounded=0;" vertex="1" parent="1">
          <mxGeometry x="2185" y="110" width="60" height="30" as="geometry" />
        </mxCell>
        <mxCell id="ydRsslhX5d8lT5pr2JEG-139" value="a" style="text;html=1;align=center;verticalAlign=middle;whiteSpace=wrap;rounded=0;" vertex="1" parent="1">
          <mxGeometry x="2245" y="110" width="60" height="30" as="geometry" />
        </mxCell>
        <mxCell id="ydRsslhX5d8lT5pr2JEG-140" value="div" style="text;html=1;align=center;verticalAlign=middle;whiteSpace=wrap;rounded=0;" vertex="1" parent="1">
          <mxGeometry x="1835" y="790" width="60" height="30" as="geometry" />
        </mxCell>
        <mxCell id="ydRsslhX5d8lT5pr2JEG-141" value="Información general" style="rounded=0;whiteSpace=wrap;html=1;" vertex="1" parent="1">
          <mxGeometry x="1835" y="1040" width="705" height="100" as="geometry" />
        </mxCell>
        <mxCell id="ydRsslhX5d8lT5pr2JEG-142" value="div" style="text;html=1;align=center;verticalAlign=middle;whiteSpace=wrap;rounded=0;" vertex="1" parent="1">
          <mxGeometry x="1845" y="1050" width="60" height="30" as="geometry" />
        </mxCell>
        <mxCell id="ydRsslhX5d8lT5pr2JEG-143" value="" style="rounded=0;whiteSpace=wrap;html=1;" vertex="1" parent="1">
          <mxGeometry x="2680" width="820" height="1160" as="geometry" />
        </mxCell>
        <mxCell id="ydRsslhX5d8lT5pr2JEG-144" value="" style="rounded=0;whiteSpace=wrap;html=1;" vertex="1" parent="1">
          <mxGeometry x="2680" width="820" height="170" as="geometry" />
        </mxCell>
        <mxCell id="ydRsslhX5d8lT5pr2JEG-145" value="Inicio" style="rounded=1;whiteSpace=wrap;html=1;" vertex="1" parent="1">
          <mxGeometry x="3000" y="10" width="90" height="40" as="geometry" />
        </mxCell>
        <mxCell id="ydRsslhX5d8lT5pr2JEG-146" value="" style="rounded=0;whiteSpace=wrap;html=1;" vertex="1" parent="1">
          <mxGeometry x="2680" y="750" width="820" height="410" as="geometry" />
        </mxCell>
        <mxCell id="ydRsslhX5d8lT5pr2JEG-147" value="Registrarse" style="rounded=1;whiteSpace=wrap;html=1;" vertex="1" parent="1">
          <mxGeometry x="3100" y="10" width="90" height="40" as="geometry" />
        </mxCell>
        <mxCell id="ydRsslhX5d8lT5pr2JEG-148" value="Contacto" style="rounded=1;whiteSpace=wrap;html=1;" vertex="1" parent="1">
          <mxGeometry x="3400" y="10" width="90" height="40" as="geometry" />
        </mxCell>
        <mxCell id="ydRsslhX5d8lT5pr2JEG-149" value="Login" style="rounded=1;whiteSpace=wrap;html=1;" vertex="1" parent="1">
          <mxGeometry x="3200" y="10" width="90" height="40" as="geometry" />
        </mxCell>
        <mxCell id="ydRsslhX5d8lT5pr2JEG-150" value="Catalogo" style="rounded=1;whiteSpace=wrap;html=1;" vertex="1" parent="1">
          <mxGeometry x="3300" y="10" width="90" height="40" as="geometry" />
        </mxCell>
        <mxCell id="ydRsslhX5d8lT5pr2JEG-151" value="Logo" style="rounded=1;whiteSpace=wrap;html=1;" vertex="1" parent="1">
          <mxGeometry x="2710" y="10" width="260" height="40" as="geometry" />
        </mxCell>
        <mxCell id="ydRsslhX5d8lT5pr2JEG-152" value="FB" style="rounded=1;whiteSpace=wrap;html=1;" vertex="1" parent="1">
          <mxGeometry x="2985" y="90" width="40" height="40" as="geometry" />
        </mxCell>
        <mxCell id="ydRsslhX5d8lT5pr2JEG-153" value="IG" style="rounded=1;whiteSpace=wrap;html=1;" vertex="1" parent="1">
          <mxGeometry x="3045" y="90" width="40" height="40" as="geometry" />
        </mxCell>
        <mxCell id="ydRsslhX5d8lT5pr2JEG-154" value="LI" style="rounded=1;whiteSpace=wrap;html=1;" vertex="1" parent="1">
          <mxGeometry x="3105" y="90" width="40" height="40" as="geometry" />
        </mxCell>
        <mxCell id="ydRsslhX5d8lT5pr2JEG-155" value="GO" style="rounded=1;whiteSpace=wrap;html=1;" vertex="1" parent="1">
          <mxGeometry x="3165" y="90" width="40" height="40" as="geometry" />
        </mxCell>
        <mxCell id="ydRsslhX5d8lT5pr2JEG-156" value="Marketing" style="rounded=0;whiteSpace=wrap;html=1;" vertex="1" parent="1">
          <mxGeometry x="2745" y="770" width="705" height="240" as="geometry" />
        </mxCell>
        <mxCell id="ydRsslhX5d8lT5pr2JEG-157" value="a" style="text;html=1;align=center;verticalAlign=middle;whiteSpace=wrap;rounded=0;" vertex="1" parent="1">
          <mxGeometry x="2975" y="110" width="60" height="30" as="geometry" />
        </mxCell>
        <mxCell id="ydRsslhX5d8lT5pr2JEG-158" value="a" style="text;html=1;align=center;verticalAlign=middle;whiteSpace=wrap;rounded=0;" vertex="1" parent="1">
          <mxGeometry x="3035" y="110" width="60" height="30" as="geometry" />
        </mxCell>
        <mxCell id="ydRsslhX5d8lT5pr2JEG-159" value="a" style="text;html=1;align=center;verticalAlign=middle;whiteSpace=wrap;rounded=0;" vertex="1" parent="1">
          <mxGeometry x="3095" y="110" width="60" height="30" as="geometry" />
        </mxCell>
        <mxCell id="ydRsslhX5d8lT5pr2JEG-160" value="a" style="text;html=1;align=center;verticalAlign=middle;whiteSpace=wrap;rounded=0;" vertex="1" parent="1">
          <mxGeometry x="3155" y="110" width="60" height="30" as="geometry" />
        </mxCell>
        <mxCell id="ydRsslhX5d8lT5pr2JEG-161" value="div" style="text;html=1;align=center;verticalAlign=middle;whiteSpace=wrap;rounded=0;" vertex="1" parent="1">
          <mxGeometry x="2745" y="790" width="60" height="30" as="geometry" />
        </mxCell>
        <mxCell id="ydRsslhX5d8lT5pr2JEG-162" value="Información general" style="rounded=0;whiteSpace=wrap;html=1;" vertex="1" parent="1">
          <mxGeometry x="2745" y="1040" width="705" height="100" as="geometry" />
        </mxCell>
        <mxCell id="ydRsslhX5d8lT5pr2JEG-163" value="div" style="text;html=1;align=center;verticalAlign=middle;whiteSpace=wrap;rounded=0;" vertex="1" parent="1">
          <mxGeometry x="2755" y="1050" width="60" height="30" as="geometry" />
        </mxCell>
        <mxCell id="ydRsslhX5d8lT5pr2JEG-164" value="" style="rounded=0;whiteSpace=wrap;html=1;" vertex="1" parent="1">
          <mxGeometry x="3560" width="820" height="1160" as="geometry" />
        </mxCell>
        <mxCell id="ydRsslhX5d8lT5pr2JEG-165" value="" style="rounded=0;whiteSpace=wrap;html=1;" vertex="1" parent="1">
          <mxGeometry x="3560" width="820" height="170" as="geometry" />
        </mxCell>
        <mxCell id="ydRsslhX5d8lT5pr2JEG-166" value="Inicio" style="rounded=1;whiteSpace=wrap;html=1;" vertex="1" parent="1">
          <mxGeometry x="3880" y="10" width="90" height="40" as="geometry" />
        </mxCell>
        <mxCell id="ydRsslhX5d8lT5pr2JEG-167" value="" style="rounded=0;whiteSpace=wrap;html=1;" vertex="1" parent="1">
          <mxGeometry x="3560" y="750" width="820" height="410" as="geometry" />
        </mxCell>
        <mxCell id="ydRsslhX5d8lT5pr2JEG-168" value="Registrarse" style="rounded=1;whiteSpace=wrap;html=1;" vertex="1" parent="1">
          <mxGeometry x="3980" y="10" width="90" height="40" as="geometry" />
        </mxCell>
        <mxCell id="ydRsslhX5d8lT5pr2JEG-169" value="Contacto" style="rounded=1;whiteSpace=wrap;html=1;" vertex="1" parent="1">
          <mxGeometry x="4280" y="10" width="90" height="40" as="geometry" />
        </mxCell>
        <mxCell id="ydRsslhX5d8lT5pr2JEG-170" value="Login" style="rounded=1;whiteSpace=wrap;html=1;" vertex="1" parent="1">
          <mxGeometry x="4080" y="10" width="90" height="40" as="geometry" />
        </mxCell>
        <mxCell id="ydRsslhX5d8lT5pr2JEG-171" value="Catalogo" style="rounded=1;whiteSpace=wrap;html=1;" vertex="1" parent="1">
          <mxGeometry x="4180" y="10" width="90" height="40" as="geometry" />
        </mxCell>
        <mxCell id="ydRsslhX5d8lT5pr2JEG-172" value="Logo" style="rounded=1;whiteSpace=wrap;html=1;" vertex="1" parent="1">
          <mxGeometry x="3590" y="10" width="260" height="40" as="geometry" />
        </mxCell>
        <mxCell id="ydRsslhX5d8lT5pr2JEG-173" value="FB" style="rounded=1;whiteSpace=wrap;html=1;" vertex="1" parent="1">
          <mxGeometry x="3865" y="90" width="40" height="40" as="geometry" />
        </mxCell>
        <mxCell id="ydRsslhX5d8lT5pr2JEG-174" value="IG" style="rounded=1;whiteSpace=wrap;html=1;" vertex="1" parent="1">
          <mxGeometry x="3925" y="90" width="40" height="40" as="geometry" />
        </mxCell>
        <mxCell id="ydRsslhX5d8lT5pr2JEG-175" value="LI" style="rounded=1;whiteSpace=wrap;html=1;" vertex="1" parent="1">
          <mxGeometry x="3985" y="90" width="40" height="40" as="geometry" />
        </mxCell>
        <mxCell id="ydRsslhX5d8lT5pr2JEG-176" value="GO" style="rounded=1;whiteSpace=wrap;html=1;" vertex="1" parent="1">
          <mxGeometry x="4045" y="90" width="40" height="40" as="geometry" />
        </mxCell>
        <mxCell id="ydRsslhX5d8lT5pr2JEG-177" value="Marketing" style="rounded=0;whiteSpace=wrap;html=1;" vertex="1" parent="1">
          <mxGeometry x="3625" y="770" width="705" height="240" as="geometry" />
        </mxCell>
        <mxCell id="ydRsslhX5d8lT5pr2JEG-178" value="a" style="text;html=1;align=center;verticalAlign=middle;whiteSpace=wrap;rounded=0;" vertex="1" parent="1">
          <mxGeometry x="3855" y="110" width="60" height="30" as="geometry" />
        </mxCell>
        <mxCell id="ydRsslhX5d8lT5pr2JEG-179" value="a" style="text;html=1;align=center;verticalAlign=middle;whiteSpace=wrap;rounded=0;" vertex="1" parent="1">
          <mxGeometry x="3915" y="110" width="60" height="30" as="geometry" />
        </mxCell>
        <mxCell id="ydRsslhX5d8lT5pr2JEG-180" value="a" style="text;html=1;align=center;verticalAlign=middle;whiteSpace=wrap;rounded=0;" vertex="1" parent="1">
          <mxGeometry x="3975" y="110" width="60" height="30" as="geometry" />
        </mxCell>
        <mxCell id="ydRsslhX5d8lT5pr2JEG-181" value="a" style="text;html=1;align=center;verticalAlign=middle;whiteSpace=wrap;rounded=0;" vertex="1" parent="1">
          <mxGeometry x="4035" y="110" width="60" height="30" as="geometry" />
        </mxCell>
        <mxCell id="ydRsslhX5d8lT5pr2JEG-182" value="div" style="text;html=1;align=center;verticalAlign=middle;whiteSpace=wrap;rounded=0;" vertex="1" parent="1">
          <mxGeometry x="3625" y="790" width="60" height="30" as="geometry" />
        </mxCell>
        <mxCell id="ydRsslhX5d8lT5pr2JEG-183" value="Información general" style="rounded=0;whiteSpace=wrap;html=1;" vertex="1" parent="1">
          <mxGeometry x="3625" y="1040" width="705" height="100" as="geometry" />
        </mxCell>
        <mxCell id="ydRsslhX5d8lT5pr2JEG-184" value="div" style="text;html=1;align=center;verticalAlign=middle;whiteSpace=wrap;rounded=0;" vertex="1" parent="1">
          <mxGeometry x="3635" y="1050" width="60" height="30" as="geometry" />
        </mxCell>
        <mxCell id="ydRsslhX5d8lT5pr2JEG-207" value="" style="rounded=1;whiteSpace=wrap;html=1;" vertex="1" parent="1">
          <mxGeometry x="1042.5" y="190" width="495" height="520" as="geometry" />
        </mxCell>
        <mxCell id="ydRsslhX5d8lT5pr2JEG-208" value="Nombre de usuario" style="rounded=1;whiteSpace=wrap;html=1;" vertex="1" parent="1">
          <mxGeometry x="1105" y="230" width="385" height="60" as="geometry" />
        </mxCell>
        <mxCell id="ydRsslhX5d8lT5pr2JEG-209" value="Nombre y Apellido" style="rounded=1;whiteSpace=wrap;html=1;" vertex="1" parent="1">
          <mxGeometry x="1105" y="310" width="385" height="60" as="geometry" />
        </mxCell>
        <mxCell id="ydRsslhX5d8lT5pr2JEG-210" value="Mail" style="rounded=1;whiteSpace=wrap;html=1;" vertex="1" parent="1">
          <mxGeometry x="1105" y="395" width="385" height="60" as="geometry" />
        </mxCell>
        <mxCell id="ydRsslhX5d8lT5pr2JEG-211" value="Telefono" style="rounded=1;whiteSpace=wrap;html=1;" vertex="1" parent="1">
          <mxGeometry x="1105" y="480" width="385" height="60" as="geometry" />
        </mxCell>
        <mxCell id="ydRsslhX5d8lT5pr2JEG-212" value="Contraseña" style="rounded=1;whiteSpace=wrap;html=1;" vertex="1" parent="1">
          <mxGeometry x="1105" y="560" width="385" height="60" as="geometry" />
        </mxCell>
        <mxCell id="ydRsslhX5d8lT5pr2JEG-213" value="Registrarse" style="rounded=1;whiteSpace=wrap;html=1;" vertex="1" parent="1">
          <mxGeometry x="1230" y="640" width="120" height="60" as="geometry" />
        </mxCell>
        <mxCell id="ydRsslhX5d8lT5pr2JEG-223" value="" style="rounded=1;whiteSpace=wrap;html=1;" vertex="1" parent="1">
          <mxGeometry x="2725" y="200" width="745" height="520" as="geometry" />
        </mxCell>
        <mxCell id="ydRsslhX5d8lT5pr2JEG-224" value="" style="rounded=1;whiteSpace=wrap;html=1;" vertex="1" parent="1">
          <mxGeometry x="2775" y="230" width="135" height="130" as="geometry" />
        </mxCell>
        <mxCell id="ydRsslhX5d8lT5pr2JEG-225" value="" style="rounded=1;whiteSpace=wrap;html=1;" vertex="1" parent="1">
          <mxGeometry x="2950" y="230" width="135" height="130" as="geometry" />
        </mxCell>
        <mxCell id="ydRsslhX5d8lT5pr2JEG-226" value="" style="rounded=1;whiteSpace=wrap;html=1;" vertex="1" parent="1">
          <mxGeometry x="3117.5" y="230" width="135" height="130" as="geometry" />
        </mxCell>
        <mxCell id="ydRsslhX5d8lT5pr2JEG-227" value="" style="rounded=1;whiteSpace=wrap;html=1;" vertex="1" parent="1">
          <mxGeometry x="3290" y="230" width="135" height="130" as="geometry" />
        </mxCell>
        <mxCell id="ydRsslhX5d8lT5pr2JEG-228" value="" style="rounded=1;whiteSpace=wrap;html=1;" vertex="1" parent="1">
          <mxGeometry x="2775" y="390" width="135" height="130" as="geometry" />
        </mxCell>
        <mxCell id="ydRsslhX5d8lT5pr2JEG-229" value="" style="rounded=1;whiteSpace=wrap;html=1;" vertex="1" parent="1">
          <mxGeometry x="2950" y="390" width="135" height="130" as="geometry" />
        </mxCell>
        <mxCell id="ydRsslhX5d8lT5pr2JEG-230" value="" style="rounded=1;whiteSpace=wrap;html=1;" vertex="1" parent="1">
          <mxGeometry x="3117.5" y="390" width="135" height="130" as="geometry" />
        </mxCell>
        <mxCell id="ydRsslhX5d8lT5pr2JEG-231" value="" style="rounded=1;whiteSpace=wrap;html=1;" vertex="1" parent="1">
          <mxGeometry x="3290" y="390" width="135" height="130" as="geometry" />
        </mxCell>
        <mxCell id="ydRsslhX5d8lT5pr2JEG-232" value="" style="rounded=1;whiteSpace=wrap;html=1;" vertex="1" parent="1">
          <mxGeometry x="2772.5" y="550" width="135" height="130" as="geometry" />
        </mxCell>
        <mxCell id="ydRsslhX5d8lT5pr2JEG-233" value="" style="rounded=1;whiteSpace=wrap;html=1;" vertex="1" parent="1">
          <mxGeometry x="2947.5" y="550" width="135" height="130" as="geometry" />
        </mxCell>
        <mxCell id="ydRsslhX5d8lT5pr2JEG-234" value="" style="rounded=1;whiteSpace=wrap;html=1;" vertex="1" parent="1">
          <mxGeometry x="3115" y="550" width="135" height="130" as="geometry" />
        </mxCell>
        <mxCell id="ydRsslhX5d8lT5pr2JEG-235" value="" style="rounded=1;whiteSpace=wrap;html=1;" vertex="1" parent="1">
          <mxGeometry x="3287.5" y="550" width="135" height="130" as="geometry" />
        </mxCell>
        <mxCell id="ydRsslhX5d8lT5pr2JEG-238" value="" style="rounded=1;whiteSpace=wrap;html=1;" vertex="1" parent="1">
          <mxGeometry x="1907.5" y="180" width="575" height="550" as="geometry" />
        </mxCell>
        <mxCell id="ydRsslhX5d8lT5pr2JEG-214" value="" style="rounded=1;whiteSpace=wrap;html=1;" vertex="1" parent="1">
          <mxGeometry x="1940" y="230" width="495" height="310" as="geometry" />
        </mxCell>
        <mxCell id="ydRsslhX5d8lT5pr2JEG-215" value="Nombre de usuario" style="rounded=1;whiteSpace=wrap;html=1;" vertex="1" parent="1">
          <mxGeometry x="2002.5" y="260" width="385" height="60" as="geometry" />
        </mxCell>
        <mxCell id="ydRsslhX5d8lT5pr2JEG-216" value="Contraseña" style="rounded=1;whiteSpace=wrap;html=1;" vertex="1" parent="1">
          <mxGeometry x="2002.5" y="340" width="385" height="60" as="geometry" />
        </mxCell>
        <mxCell id="ydRsslhX5d8lT5pr2JEG-220" value="Ingresar" style="rounded=1;whiteSpace=wrap;html=1;" vertex="1" parent="1">
          <mxGeometry x="2127.5" y="450" width="120" height="60" as="geometry" />
        </mxCell>
        <mxCell id="ydRsslhX5d8lT5pr2JEG-221" value="Olvide mi contraseña" style="rounded=1;whiteSpace=wrap;html=1;" vertex="1" parent="1">
          <mxGeometry x="1955" y="640" width="220" height="60" as="geometry" />
        </mxCell>
        <mxCell id="ydRsslhX5d8lT5pr2JEG-222" value="Olvide mi usuario y contraseña" style="rounded=1;whiteSpace=wrap;html=1;" vertex="1" parent="1">
          <mxGeometry x="2210" y="640" width="220" height="60" as="geometry" />
        </mxCell>
        <mxCell id="ydRsslhX5d8lT5pr2JEG-236" value="Section" style="text;html=1;align=center;verticalAlign=middle;whiteSpace=wrap;rounded=0;" vertex="1" parent="1">
          <mxGeometry x="1960" y="185" width="60" height="30" as="geometry" />
        </mxCell>
        <mxCell id="ydRsslhX5d8lT5pr2JEG-239" value="Formulario de contacto" style="rounded=1;whiteSpace=wrap;html=1;" vertex="1" parent="1">
          <mxGeometry x="3580" y="190" width="440" height="310" as="geometry" />
        </mxCell>
        <mxCell id="ydRsslhX5d8lT5pr2JEG-240" value="Maps" style="rounded=1;whiteSpace=wrap;html=1;" vertex="1" parent="1">
          <mxGeometry x="4045" y="190" width="315" height="310" as="geometry" />
        </mxCell>
        <mxCell id="ydRsslhX5d8lT5pr2JEG-241" value="Sucursales con dirección, teléfono, etc" style="rounded=1;whiteSpace=wrap;html=1;" vertex="1" parent="1">
          <mxGeometry x="3595" y="530" width="755" height="200" as="geometry" />
        </mxCell>
        <mxCell id="ydRsslhX5d8lT5pr2JEG-242" value="Fondo:&amp;nbsp;&lt;div&gt;E0EDF9&lt;br&gt;&lt;/div&gt;" style="text;html=1;align=center;verticalAlign=middle;whiteSpace=wrap;rounded=0;" vertex="1" parent="1">
          <mxGeometry y="170" width="60" height="30" as="geometry" />
        </mxCell>
        <mxCell id="ydRsslhX5d8lT5pr2JEG-243" value="Fondo:&amp;nbsp;&lt;div&gt;F59E8B&lt;/div&gt;" style="text;html=1;align=center;verticalAlign=middle;whiteSpace=wrap;rounded=0;" vertex="1" parent="1">
          <mxGeometry y="130" width="60" height="30" as="geometry" />
        </mxCell>
        <mxCell id="ydRsslhX5d8lT5pr2JEG-244" value="Fondo:&amp;nbsp;&lt;div&gt;8BBEF5&lt;br&gt;&lt;/div&gt;" style="text;html=1;align=center;verticalAlign=middle;whiteSpace=wrap;rounded=0;" vertex="1" parent="1">
          <mxGeometry y="760" width="60" height="30" as="geometry" />
        </mxCell>
        <mxCell id="ydRsslhX5d8lT5pr2JEG-245" value="Tipografía:&amp;nbsp;https://fonts.google.com/specimen/Raleway" style="text;html=1;align=center;verticalAlign=middle;whiteSpace=wrap;rounded=0;" vertex="1" parent="1">
          <mxGeometry y="-90" width="1020" height="30" as="geometry" />
        </mxCell>
      </root>
    </mxGraphModel>
  </diagram>
</mxfile>
